<svg xmlns="http://www.w3.org/2000/svg" width="157.499" height="81.715" viewBox="0 0 157.499 81.715"><defs><style>.a{fill:#004cff;}.b{fill:#262626;}</style></defs><g transform="translate(-191.249 -116.414)"><path class="a" d="M326.175,187.232c-.834,0-1.678-.036-2.509-.107,6.757-1.217,15.352-4.822,17.926-15.1,1.968-7.857-2.334-14.719-6.494-21.354-3.25-5.184-6.32-10.08-6.021-14.995.2-3.251,1.083-5.547,2.632-6.825a6.4,6.4,0,0,1,4.2-1.328,8.877,8.877,0,0,1,5.773,2.042,3.617,3.617,0,0,1,2.711-2.314,11.339,11.339,0,0,1,3.142-.423c.223,0,.373.006.427.009a6.968,6.968,0,0,0-2.275,3.675c-.452,2.169-.048,8.514,0,9.23v.006l-.017,0h-.007c-.047,0-.173.011-.347.011-.846,0-2.911-.185-3.805-1.9a16.372,16.372,0,0,1-1.079-3.174c-.449-1.674-.872-3.254-1.769-4.076a2.419,2.419,0,0,0-1.613-.678,1.884,1.884,0,0,0-1.381.607c-.5.524-1.085,1.633-.994,3.945.139,3.5,2.753,7.719,5.78,12.606l.006.01A74.608,74.608,0,0,1,347,159.253c1.875,4.868,2.242,9.149,1.121,13.088a19.209,19.209,0,0,1-8.472,11.268A25.383,25.383,0,0,1,326.175,187.232ZM213.77,186.4h-.023a18.168,18.168,0,0,1-4.6-.649c-2.828-.825-4.323-2.28-4.443-4.325-1.082,1.826-3.117,3.126-6.047,3.865a20.041,20.041,0,0,1-4.562.59h-.034a8.214,8.214,0,0,0,3.073-2.319c1.447-1.662,3.251-4.791,3.63-10.259l0-.055.031-.445q.031-.446.063-.889c.712-10.008,1.384-19.462-6.8-26.282h.007a16.425,16.425,0,0,0,2.474.172,14.64,14.64,0,0,0,7.265-1.745c1.152-.674,1.984-1.192,2.652-1.608l.058-.036.058-.036a7.648,7.648,0,0,1,3.73-1.57,3.737,3.737,0,0,1,.512-.037,3.3,3.3,0,0,1,2.737,1.5h-.007a1.864,1.864,0,0,0-.28-.019c-1.1,0-4.718.727-5.164,10.083-.059,1.221-.113,2.484-.165,3.7v.052l-.026.6,0,.042c-.27,6.273-.549,12.759-1.278,17.711,1.586-3.647,3.826-7.65,5.8-11.181l.008-.014c1-1.783,1.941-3.467,2.625-4.811,3.155-6.215,2.223-8.665,1.862-9.268a4.649,4.649,0,0,0-1.009-1.1c-.394-.342-.7-.611-.59-.915.167-.442,10.376-2.905,13.876-3.7a13.558,13.558,0,0,0-3.086,3.554,23.089,23.089,0,0,0-3.256,11.966c-.167,8.154,3.86,12.231,6.275,13.936A50.314,50.314,0,0,1,232,150.877a58.877,58.877,0,0,1,11.436-19.585,41.86,41.86,0,0,1,11.352-9.154,27.547,27.547,0,0,1,13.055-3.461,26.143,26.143,0,0,1,13.639,3.987,18.783,18.783,0,0,1,7.824,8.6,13.372,13.372,0,0,1,.716,8.719,8.551,8.551,0,0,1-2.267,3.96,5.356,5.356,0,0,1-3.712,1.535,5.878,5.878,0,0,1-1.858-.314,11.342,11.342,0,0,1-2.958-1.45l-1.512,10.363,6.143-3.794a11.232,11.232,0,0,0,.305,6.849,9.425,9.425,0,0,0-4.153-1.01,6.414,6.414,0,0,0-2.672.539L275.7,167.873c.74,1.1,1.838,2.45,2.869,2.63a2.549,2.549,0,0,0,.434.04c1.733,0,2.662-2.151,3.882-5.432l.15-.405.038-.1.022-.059.1-.26c1.23-3.328,1.848-5,3.029-5.451a7.647,7.647,0,0,1,2.546-.364c.341,0,.593.014.685.02h.005l-.006.013c-.24.5-2.347,5.021-2.347,8.372,0,3.5.641,4.648.669,4.7a.118.118,0,0,1-.03,0l-.085.008-.033,0c-2.807.275-5.569.517-7.778.682-3.69.276-12.357,1.833-13.333,2.01h-.005s.026-.055.059-.119l.077-.152.02-.04.008-.016.075-.148c.253-.5.781-1.544,1.626-3.2.2-.4.418-.822.666-1.3l3.986-27.115a6.928,6.928,0,0,0-.291-1.589c-.417-1-2.048-1.473-2.065-1.478a13.245,13.245,0,0,0,.545-1.538l2.541-.363.013-.082,6.561-.968-.941,6.45a7.447,7.447,0,0,0,5.652-6.381,11.173,11.173,0,0,0-5.312-10.931,18.93,18.93,0,0,0-10.091-2.955c-7.578,0-15.811,4.748-22.588,13.027-9.93,12.131-14.634,28.464-11.984,41.61a11.147,11.147,0,0,0,.71,2.044,25.185,25.185,0,0,0,1.7,2.945,13.519,13.519,0,0,1-2.981.334h-.005a14.643,14.643,0,0,1-6.739-1.7,19.47,19.47,0,0,1-5.55-4.362,20.71,20.71,0,0,1-3.9-6.4,14.76,14.76,0,0,1-.967-6.814,25.8,25.8,0,0,0-5.546,14.047c-.312,4.056.713,6.328,1.629,7.519a4.731,4.731,0,0,0,2.081,1.629Zm-9.541-28.561-.8.921.92.8.8-.92-.921-.8Zm-3.36-8.687a14.6,14.6,0,0,1,3.165,7.91c0-.008,0-.035.01-.08.273-1.86,1.219-8.071,1.905-9.911-.737,1.376-2.861,2.118-4.484,2.118A4.687,4.687,0,0,1,200.869,149.157Zm118.526,36.589h0a15.641,15.641,0,0,1-10.188-3.693,14.915,14.915,0,0,1-5.135-10.045,22.278,22.278,0,0,1,.658-7.129,16.463,16.463,0,0,1,3.295-6.871,6.017,6.017,0,0,1,4.543-2.2c.158,0,.309.006.451.017-1.3,1.4-2.552,4.191-3.437,7.653a25.1,25.1,0,0,0-.893,8.684,12.758,12.758,0,0,0,13.086,11.371,17.33,17.33,0,0,0,12.173-5.394,20.375,20.375,0,0,1-6.93,5.78A16.937,16.937,0,0,1,319.395,185.746Zm-80.59-7.331h0l.2-1a3.635,3.635,0,0,0,2.691-2.148c.418-1.057,1.411-4.956,2.171-8.041l1.26-8.567c-4.109.532-6.507,3.341-6.412,7.517a9.608,9.608,0,0,1-1.15-5.012,7.389,7.389,0,0,1,1.147-3.667,7.546,7.546,0,0,1,6.54-3.1c.165,0,.333,0,.5.011l1-6.827a14.583,14.583,0,0,0-.415-3.045c-.42-1-2.048-1.473-2.065-1.478a12.862,12.862,0,0,0,.545-1.538l2.887-.412,0-.026,6.562-.969-2.326,16.124a16.127,16.127,0,0,1,6.8,7.255l3.629-24.683,6.562-.968-5.308,36.8-6.651.88,1.119-7.61a11.908,11.908,0,0,0-1.3-3.879,11.06,11.06,0,0,0-5.335-4.444l-2.5,17.325-4.039.536,0,.024-6.118.94Zm49.851-6.819h0l0-.007a37.758,37.758,0,0,0,1.656-3.944c.376-1.048.9-2.965,1.547-5.7l3-20.252a17.716,17.716,0,0,0-.455-3.666c-.418-.995-2.047-1.472-2.064-1.477a13.7,13.7,0,0,0,.545-1.538l3.029-.433,0-.009,4.616-.682.031-.082,13.06-1.524c.024.063-.921,1.942-2.15,4.278-1.067,2.027-2.273,4.246-2.457,4.393a.467.467,0,0,1-.3.094c-.457,0-1.182-.482-1.844-1.836a7.372,7.372,0,0,1-.619-2.233,3.449,3.449,0,0,0-.651-1.866,1.654,1.654,0,0,0-2.576-.291,4.9,4.9,0,0,0-.92,1.316l-2.675,18.507a5.541,5.541,0,0,1,4.877-2.977,7.963,7.963,0,0,1,2.894.6l-2.546,4.321a3.889,3.889,0,0,0-2.152-.765c-2.1,0-3.288,2.418-3.807,3.859-.019.123-.039.246-.059.368l-.027.17-.005.034c-.392,2.429-.763,4.722.4,6.25a5.223,5.223,0,0,0,3.816,1.695h.02a.8.8,0,0,0,.11-.012l.012,0a.785.785,0,0,1,.123-.014c.06,0,.087.019.087.061l0,1.543a131.63,131.63,0,0,0-14.531,1.815Zm20.913-2.139v0c0-.009.505-1.007,1.863-3.676.581-1.142,1.238-2.416,1.955-3.785l3.764-25.6a5.367,5.367,0,0,0-.268-1.132,4.929,4.929,0,0,0-.8-1.332c-.149-.2-.3-.4-.459-.633l-.017-1.033s.014.009.063.009c.205,0,.921-.085,2.126-.253l.005-.033,6.561-.968-.006.039c1.934-.326,3.1-.531,3.109-.551l.073,1.128a3.554,3.554,0,0,0-2.84,1.894,17.621,17.621,0,0,0-1.049,2.38L319.533,164.1a4.012,4.012,0,0,0,2.1,1.585,2.525,2.525,0,0,0,.434.039c1.732,0,2.662-2.151,3.882-5.433l.308-.831c1.23-3.323,1.848-4.991,3.026-5.445a7.655,7.655,0,0,1,2.551-.364c.4,0,.674.02.686.021-.023.047-2.354,4.859-2.354,8.385,0,3.542.663,4.684.67,4.7s-.056.007-.15.016c-2.787.273-5.549.515-7.777.682-3.85.289-13.242,1.992-13.336,2.009Z"/><path class="b" d="M240.571,193.851s.71-2.9,2.131-8.69a.248.248,0,0,1,.23-.194q.548-.086,1.717-.237l1.535-.2c.119-.016.166.024.142.121-.122.5-.22.883-.292,1.145-.017.068-.09.117-.221.149q-.532.073-1.459.212a.22.22,0,0,0-.179.176l-.483,1.971c-.028.113,0,.162.076.152.172-.017.572-.079,1.2-.188.111-.015.158.025.141.121a12.309,12.309,0,0,1-.36,1.467.159.159,0,0,1-.145.129c-.286.031-.695.088-1.221.168a.23.23,0,0,0-.176.165q-.119.4-.392,1.558-.405,1.647-.421,1.714a.233.233,0,0,1-.2.179,8.314,8.314,0,0,1-1.507.219h-.02C240.581,193.987,240.549,193.941,240.571,193.851Zm10.622-1.237a.071.071,0,0,1-.059-.026c-.033-.042-.031-.136,0-.28l2.111-8.612a.288.288,0,0,1,.265-.23c.483-.067,1.1-.156,1.788-.257a3.18,3.18,0,0,1,.436-.032,1.661,1.661,0,0,1,.743.151.626.626,0,0,1,.349.783l-.552,2.206a2.093,2.093,0,0,1-.574.986,2.066,2.066,0,0,1-.626.454c-.068.031-.106.058-.113.081s.025.029.083.042a.81.81,0,0,1,.4.215c.294.251.3.974.01,2.147a8.233,8.233,0,0,0-.28,1.607c0,.158-.061.249-.181.274-.147.034-.572.09-1.382.18h-.014a.063.063,0,0,1-.051-.023c-.032-.039-.038-.126-.015-.26.085-.495.2-1.061.355-1.683.2-.8.217-1.309.061-1.509a.258.258,0,0,0-.213-.1.463.463,0,0,0-.059,0,.335.335,0,0,0-.041,0,.25.25,0,0,0-.1.022c-.06.031-.108.117-.143.258-.313,1.283-.589,2.379-.77,3.092-.049.2-.115.3-.205.319a7.366,7.366,0,0,1-1.224.192Zm3.614-8a1.361,1.361,0,0,1-.184.046c-.071.01-.122.079-.153.205t-.481,1.962c-.032.134-.032.225,0,.268a.086.086,0,0,0,.073.032h.027a.509.509,0,0,0,.126-.02.56.56,0,0,0,.416-.3,6.477,6.477,0,0,0,.52-1.565.693.693,0,0,0-.017-.56.247.247,0,0,0-.208-.086A.611.611,0,0,0,254.806,184.618Zm7.523,6.449a.079.079,0,0,1-.066-.027.21.21,0,0,1-.005-.168l2.144-8.746a.177.177,0,0,1,.161-.141c.635-.094,1.625-.228,2.944-.4a.434.434,0,0,1,.056,0,.111.111,0,0,1,.092.032.094.094,0,0,1,.009.081q-.045.18-.148.6-.14.528-.176.668a.187.187,0,0,1-.164.158l-.695.1-.04.005-.616.085c-.117.016-.186.066-.207.148-.007.034-.066.259-.173.669l-.033.128c-.108.409-.185.725-.23.941a.105.105,0,0,0,.01.092.118.118,0,0,0,.094.034,9.245,9.245,0,0,0,1.09-.139l.039,0a.1.1,0,0,1,.077.027.105.105,0,0,1,.015.087c-.026.137-.092.39-.2.751-.127.452-.191.686-.208.754a.2.2,0,0,1-.168.175l-1.065.147c-.08.012-.141.074-.184.185a16.215,16.215,0,0,0-.455,1.765.1.1,0,0,0,.012.093.172.172,0,0,0,.139.044h.021l.046-.006.042-.005,1.214-.167a.361.361,0,0,1,.051,0,.115.115,0,0,1,.093.031.105.105,0,0,1,.009.092c-.158.644-.258,1.074-.32,1.354-.022.089-.1.147-.225.171a26.061,26.061,0,0,1-2.978.39Zm10.312-1.42a.1.1,0,0,1,.011-.089l.071-.173.03-.074q.378-.918.755-1.839l.032-.077.013-.032.282-.685.748-1.823a37.442,37.442,0,0,1,2.035-4.566c.435-.081.865-.14,1.278-.176a.009.009,0,0,1,.008,0,28.993,28.993,0,0,1-.22,4.311c-.141,1.681-.27,3.172-.4,4.556,0,.043-.045.071-.123.082l-.392.054h-.01l-.212.03c-.333.038-.581.068-.779.1a.037.037,0,0,1-.029-.012,1.471,1.471,0,0,1-.065-.679c.009-.334.027-.642.053-.916a.054.054,0,0,0-.011-.043.08.08,0,0,0-.063-.02l-.037,0-.462.064a.162.162,0,0,0-.127.094c-.164.419-.383.947-.67,1.615-.05.075-.093.112-.131.118l-1.457.2a.317.317,0,0,1-.052,0C272.679,189.675,272.653,189.666,272.642,189.647Zm3.159-4.159c-.049.132-.1.266-.148.4l-.029.078-.1.263a.014.014,0,0,0,0,.014c.008.014.041.02.1.02a1.043,1.043,0,0,0,.229-.026c.083-.019.124-.042.131-.073a7.438,7.438,0,0,0,.092-1.244l0,0C276.037,184.926,275.947,185.111,275.8,185.488Zm8.594,2.487a.2.2,0,0,1-.006-.165l2.134-8.7c.026-.1.079-.162.157-.173.311-.049.729-.106,1.279-.176h.006a.08.08,0,0,1,.066.026.135.135,0,0,1,.007.115c-.4,1.449-.585,2.164-.633,2.391-.008.036-.008.059,0,.068a.015.015,0,0,0,.012.005c.031-.011.058-.045.089-.109.181-.375.539-1.105,1.218-2.449.059-.112.121-.171.193-.181.193-.019.459-.056.77-.106l.092-.013.393-.054.022,0,.09-.012.018,0,.039,0a.1.1,0,0,1,.08.03.124.124,0,0,1,.009.107.284.284,0,0,1-.028.069c-.243.34-.718,1.056-1.452,2.187-.745,1.157-1.105,1.742-1.1,1.784.124,1.138.316,2.66.585,4.653.016.12-.02.191-.108.211l-1.627.224h-.014c-.055,0-.085-.045-.09-.139-.018-.337-.042-1.12-.072-2.327,0-.115-.01-.176-.024-.18a.819.819,0,0,0-.07.194c-.163.541-.365,1.352-.6,2.409-.027.111-.085.174-.172.186L284.49,188l-.027,0A.08.08,0,0,1,284.395,187.975Zm11.752-2.143a1.776,1.776,0,0,1-.184-1.631c.032-.131.087-.338.155-.583.046-.158.109-.243.188-.253s.326-.054.674-.115c.365-.065.592-.1.674-.114h.012a.049.049,0,0,1,.042.02c.028.037.026.122-.007.256l-.134.549c-.081.331-.078.554.008.665a.23.23,0,0,0,.192.082.621.621,0,0,0,.064,0c.244-.033.42-.236.525-.6l.178-.631c.053-.187-.083-.448-.4-.778-.51-.527-.835-.873-.889-.949a1.384,1.384,0,0,1-.317-1.179l.234-.951a3.613,3.613,0,0,1,.907-1.695,3.027,3.027,0,0,1,1.754-.9,2.283,2.283,0,0,1,.328-.026,1.043,1.043,0,0,1,.9.4,1.619,1.619,0,0,1,.124,1.357l-.271,1.108a.236.236,0,0,1-.176.2c-.227.052-.661.112-1.289.178a.19.19,0,0,1-.031,0,.089.089,0,0,1-.074-.028.145.145,0,0,1-.008-.121c.033-.169.113-.464.244-.9a.918.918,0,0,0,.025-.453c-.027-.129-.087-.194-.179-.194a.18.18,0,0,0-.031,0c-.306.042-.523.312-.643.8l-.143.582c-.057.229.074.532.386.9.147.168.293.338.441.506l.006.007.148.17.3.34a1.51,1.51,0,0,1,.306,1.224l-.19.772a3.292,3.292,0,0,1-.914,1.631,2.889,2.889,0,0,1-1.643.779,2.277,2.277,0,0,1-.287.021A1.223,1.223,0,0,1,296.147,185.832Z"/><path class="b" d="M236.456,190.951l-.777,1.843-44.43,5.335S236.358,190.758,236.456,190.951Zm.776-3.007-.776,1.843-44.43,5.335S237.136,187.75,237.232,187.944Zm.581-2.813-.776,1.843-44.43,5.336S237.717,184.937,237.813,185.131Z"/><path class="b" d="M201.739,138.323a1.193,1.193,0,0,1-.864-.327.936.936,0,0,1-.247-.705l1.633-11.005h-.009a5.383,5.383,0,0,1-2.719-.7,6.918,6.918,0,0,1-2.367-2.41l1.974-1.229a3.691,3.691,0,0,0,3.273,1.909c1.883,0,3.981-1.171,5.4-2.051.834-.519,1.591-1.04,2.259-1.5l.026-.018.054-.037c.133-.091.285-.2.639-.436a28.918,28.918,0,0,1,3.891-2.291,10.618,10.618,0,0,1,4.283-1.106l.165,0a6.517,6.517,0,0,1,6.309,4.472,5.543,5.543,0,0,0-1.941,1.452,4.6,4.6,0,0,0-4.392-3.6H219a8.4,8.4,0,0,0-3.345.9,26.524,26.524,0,0,0-3.565,2.1l-.674.464c-.723.5-1.542,1.062-2.376,1.58a18.98,18.98,0,0,1-4.367,2.114l-1.741,11.736A1.262,1.262,0,0,1,201.739,138.323Zm3.794-.774v0l1.793-10.572c.389-1,.939-1.15,1.233-1.15a1.054,1.054,0,0,1,.819.428,1.275,1.275,0,0,1,.24,1.095l-1.031,5.336,3.614-4.909,1.116-1.412.824,1.6,1.893,3.684,2.68-9.053a1.3,1.3,0,0,1,1.134-.862,1.143,1.143,0,0,1,.9.456,1.2,1.2,0,0,1,.2,1.06l-2.718,9.184c-.07.237-.138.516-.209.811-.348,1.439-.78,3.23-2.158,3.23l-2.954-5.851c-.558.705-1.042,1.388-1.51,2.049-1.633,2.3-2.923,4.124-5.857,4.874Zm20.727-2.012a3.556,3.556,0,0,1-.476-.032,4.218,4.218,0,0,1-3.2-2.684,8.912,8.912,0,0,1-.589-4.8l.005-.037a8.914,8.914,0,0,1,1.849-4.439,4.411,4.411,0,0,1,3.325-1.761,3.538,3.538,0,0,1,.473.032,4.219,4.219,0,0,1,3.2,2.686,9.5,9.5,0,0,1-1.265,9.275A4.4,4.4,0,0,1,226.259,135.536Zm.922-11.43a2.188,2.188,0,0,0-1.554.929,6.565,6.565,0,0,0-1.335,3.292l-.005.036a6.585,6.585,0,0,0,.411,3.5c.357.79.852,1.265,1.393,1.338a1.129,1.129,0,0,0,.154.01,2.184,2.184,0,0,0,1.553-.929,7.185,7.185,0,0,0,.93-6.829c-.357-.79-.852-1.266-1.392-1.339A1.158,1.158,0,0,0,227.181,124.107Z"/></g></svg>